<?xml version="1.0" standalone="no"?>
<!DOCTYPE svg PUBLIC "-//W3C//DTD SVG 20010904//EN"
 "http://www.w3.org/TR/2001/REC-SVG-20010904/DTD/svg10.dtd">
<svg version="1.0" xmlns="http://www.w3.org/2000/svg"
 width="300.000000pt" height="403.000000pt" viewBox="0 0 300.000000 403.000000"
 preserveAspectRatio="xMidYMid meet">
<metadata>
Created by potrace 1.10, written by Peter Selinger 2001-2011
</metadata>
<g transform="translate(0.000000,403.000000) scale(0.100000,-0.100000)"
fill="#4cbe9f" stroke="none">
<path d="M680 3875 c-7 -8 -13 -27 -13 -42 -1 -16 -10 -34 -20 -41 -9 -7 -15
-18 -11 -23 3 -5 1 -15 -4 -22 -5 -7 -12 -29 -16 -49 -4 -22 -15 -42 -26 -48
-21 -11 -27 -45 -10 -55 6 -4 6 -15 0 -30 -7 -18 -6 -25 3 -25 7 -1 5 -6 -5
-14 -20 -15 -38 -58 -38 -90 0 -13 -7 -29 -15 -36 -17 -14 -21 -60 -5 -60 6 0
10 -15 10 -34 0 -29 -4 -34 -30 -40 -19 -3 -34 -14 -39 -28 -11 -29 1 -45 41
-54 31 -6 31 -7 11 -23 -37 -30 -65 -80 -59 -106 5 -18 -1 -33 -23 -58 -29
-33 -30 -36 -24 -107 4 -50 12 -79 24 -91 16 -16 16 -17 -4 -23 -12 -3 -34 -6
-48 -6 -32 0 -52 -21 -43 -44 8 -20 55 -46 84 -46 12 0 19 -4 16 -9 -4 -5 0
-11 6 -14 26 -9 -5 -22 -47 -20 -55 2 -76 -18 -50 -47 10 -11 26 -22 36 -25
26 -8 16 -21 -21 -28 -37 -8 -41 -41 -9 -81 l20 -26 -20 0 c-12 0 -22 1 -23 2
-2 1 -12 -4 -24 -10 -29 -16 -31 -96 -3 -116 19 -13 19 -14 -3 -20 -13 -3 -32
-6 -43 -6 -11 -1 -38 -16 -60 -35 -33 -29 -38 -37 -29 -52 16 -26 65 -51 100
-52 17 -1 33 -3 35 -6 13 -12 -6 -77 -27 -98 -13 -12 -24 -28 -24 -35 0 -7
-13 -18 -29 -23 -16 -6 -32 -16 -34 -24 -7 -17 20 -55 39 -55 8 0 14 -4 14 -9
0 -5 17 -12 37 -16 36 -7 37 -8 14 -17 -14 -5 -31 -14 -40 -21 -8 -7 -32 -12
-55 -12 -30 0 -41 -4 -44 -17 -4 -19 27 -67 43 -68 6 0 15 -10 20 -22 13 -29
42 -33 101 -13 26 8 49 14 51 11 3 -2 -22 -13 -54 -23 -32 -10 -67 -26 -77
-35 -11 -10 -30 -18 -42 -18 -32 0 -54 -10 -54 -25 0 -7 -7 -16 -16 -19 -13
-5 -15 -15 -11 -43 7 -41 20 -53 60 -53 15 0 30 -6 33 -13 3 -9 16 -12 37 -9
l32 5 -26 -25 c-14 -13 -41 -30 -59 -38 -42 -17 -70 -48 -70 -77 0 -20 5 -23
40 -23 22 0 40 -4 40 -10 0 -13 43 -13 56 0 11 11 69 -4 94 -25 8 -7 24 -15
35 -18 19 -5 19 -5 -1 -6 -11 0 -39 -17 -61 -36 -23 -19 -46 -35 -51 -35 -6 0
-19 -10 -29 -23 -10 -13 -31 -27 -46 -31 -40 -10 -34 -53 10 -81 19 -12 30
-26 27 -34 -2 -8 3 -24 11 -37 19 -30 63 -32 98 -4 16 13 40 20 67 20 46 0
110 37 131 78 7 12 16 22 21 22 5 0 18 9 30 20 15 14 26 17 38 10 16 -9 17
-13 11 -101 -2 -26 -47 -65 -93 -78 -55 -17 -119 -47 -183 -85 -53 -32 -76
-55 -71 -71 3 -12 46 -16 46 -4 0 4 16 13 35 20 19 7 32 15 30 17 -6 6 48 35
139 73 42 18 79 29 82 26 13 -13 -9 -47 -34 -53 -56 -14 -114 -52 -134 -88 -7
-12 6 -6 31 16 23 20 61 41 84 48 56 15 84 40 82 70 -1 18 -8 25 -23 26 -12 1
-25 2 -28 3 -3 0 7 12 23 25 26 22 29 31 31 99 2 48 -1 78 -8 82 -23 14 -63
-7 -120 -63 -73 -72 -80 -77 -105 -77 -11 0 -23 5 -27 10 -5 6 -8 5 -8 -3 0
-7 -5 -10 -10 -7 -6 4 -25 -3 -44 -14 -50 -31 -76 -28 -76 8 0 22 -8 35 -33
52 -51 36 -58 59 -17 59 11 0 27 11 36 25 9 14 27 28 40 31 14 4 33 17 43 30
10 12 30 26 44 29 49 13 61 55 15 55 -11 0 -32 9 -46 21 -20 15 -38 20 -77 18
-104 -5 -135 -1 -135 21 0 14 17 27 60 47 33 15 60 33 60 39 0 16 24 24 68 25
44 0 104 20 109 35 2 6 -10 17 -27 24 -26 11 -37 10 -68 -3 -59 -25 -107 -30
-122 -12 -7 8 -25 15 -41 15 -18 0 -32 7 -39 19 -15 28 -13 54 4 48 8 -3 16 2
19 15 4 14 11 18 25 14 11 -4 29 2 45 14 14 11 66 35 115 53 128 46 101 83
-29 39 -57 -20 -79 -19 -79 3 0 8 -13 23 -29 34 -16 11 -31 30 -34 40 -5 19
-1 20 38 14 33 -4 48 -2 60 10 8 9 31 19 51 23 49 9 38 26 -31 48 -32 10 -67
27 -78 36 -19 18 -19 18 1 29 11 6 22 7 26 4 9 -9 36 30 31 45 -5 14 11 16 20
2 12 -19 25 -10 20 13 -5 20 -2 23 21 22 15 0 29 6 32 14 3 10 0 12 -12 8 -23
-9 -32 19 -19 54 11 28 10 29 -21 29 -40 0 -95 18 -118 38 -21 18 -23 32 -5
32 8 0 22 9 33 21 13 14 27 19 46 17 16 -3 28 -1 28 4 0 4 3 7 8 6 12 -3 52
13 52 21 0 3 -14 15 -30 24 -41 24 -38 37 6 30 28 -5 36 -3 32 7 -2 7 -12 14
-22 16 -9 1 -24 8 -32 15 -24 20 -1 32 61 30 49 -1 56 1 53 17 -2 9 -9 16 -15
15 -15 -3 -63 43 -63 60 0 8 20 20 51 28 28 8 51 18 50 24 0 5 -17 15 -38 22
-21 8 -45 20 -53 28 -13 13 -8 15 40 15 30 0 61 4 69 9 18 12 5 50 -22 61 -12
4 -37 14 -54 20 -42 16 -44 40 -3 40 37 0 100 25 100 39 0 12 -40 35 -40 24 0
-4 -5 0 -11 11 -6 10 -7 21 -3 25 12 8 13 51 2 51 -5 0 -7 4 -4 9 4 5 2 19 -2
32 -7 18 -2 28 27 55 33 30 35 35 23 55 -12 18 -11 24 7 43 12 12 21 27 21 34
0 12 40 38 53 34 4 -1 7 5 7 15 0 9 -3 13 -6 10 -4 -3 -16 0 -28 8 -11 8 -28
15 -38 15 -10 0 -18 4 -18 8 0 17 25 32 52 32 26 0 28 2 28 45 0 31 -5 47 -17
53 -19 11 -11 42 12 42 11 0 15 11 15 38 0 61 10 82 36 82 27 0 31 12 9 30
-10 9 -12 17 -5 30 7 13 5 21 -5 30 -22 18 -19 29 11 40 14 6 22 15 19 20 -4
6 -2 17 5 25 6 7 10 22 8 32 -2 13 4 19 25 21 32 4 36 22 7 29 l-21 6 21 19
c11 11 18 23 15 28 -3 4 0 21 6 37 l11 28 13 -25 c8 -14 14 -33 15 -43 0 -10
6 -20 14 -23 8 -3 12 -13 9 -23 -2 -10 8 -30 25 -49 29 -31 29 -31 9 -50 -24
-25 -15 -42 23 -42 22 0 27 -4 23 -18 -3 -12 4 -24 20 -35 23 -15 25 -21 20
-75 -4 -47 -2 -62 12 -76 17 -16 17 -18 0 -30 -27 -19 -12 -46 25 -46 37 0 38
-9 4 -41 -25 -23 -79 -99 -72 -102 2 -1 13 -8 25 -14 13 -7 30 -13 38 -13 8 0
15 -4 15 -9 0 -5 9 -11 20 -14 11 -3 20 -1 20 3 0 5 8 11 18 14 10 3 7 4 -8 3
-14 -1 -32 3 -40 8 -8 6 -24 14 -34 20 -31 16 -29 29 14 77 22 25 40 51 40 57
0 14 -38 34 -50 26 -14 -8 -13 1 2 25 10 16 10 24 0 40 -7 12 -12 46 -11 81 2
52 -1 62 -20 76 -12 8 -20 21 -17 28 7 18 -14 35 -43 35 -23 1 -24 2 -8 11 24
14 21 40 -9 68 -16 15 -24 32 -20 43 2 11 -2 22 -10 25 -8 3 -14 11 -14 18 0
22 -31 75 -45 75 -7 0 -18 -7 -25 -15z m-300 -2374 c0 -11 -59 -26 -67 -17 -6
6 33 24 55 25 6 1 12 -3 12 -8z m220 -560 c0 -5 -15 -12 -32 -16 -40 -8 -181
-78 -225 -111 -41 -31 -53 -31 -24 0 22 23 205 119 246 129 32 8 35 7 35 -2z"/>
<path d="M966 3133 c-18 -24 -18 -26 -2 -35 16 -9 16 -12 -3 -43 -16 -28 -17
-34 -5 -39 8 -3 24 -1 36 4 l23 9 -24 0 c-17 1 -21 4 -13 14 5 6 8 28 7 47 -2
19 1 43 6 52 15 27 -4 21 -25 -9z"/>
<path d="M996 2986 c-9 -14 -16 -39 -16 -55 0 -16 -4 -33 -10 -36 -22 -14 -7
-25 33 -25 55 0 61 -6 39 -42 -13 -23 -14 -30 -4 -37 17 -10 -1 -52 -29 -69
-17 -11 -24 -9 -46 8 -27 21 -60 19 -75 -4 -14 -20 -8 -26 17 -20 30 7 55 -10
55 -39 0 -29 38 -57 77 -57 29 0 33 -3 33 -26 0 -19 4 -25 15 -20 21 8 19 -8
-5 -29 -24 -21 -26 -45 -5 -45 8 0 14 -4 13 -9 -4 -13 42 -51 61 -51 13 0 13
-2 1 -15 -18 -17 -90 -48 -90 -38 0 4 -7 -2 -15 -15 -12 -16 -13 -27 -6 -40 7
-13 7 -22 -1 -30 -9 -9 9 -12 76 -12 l87 0 -28 -25 c-23 -20 -25 -26 -13 -34
12 -8 11 -13 -5 -31 -11 -12 -37 -31 -58 -42 -58 -29 -43 -42 47 -39 l78 2 -6
-38 c-4 -21 -14 -48 -22 -60 -13 -20 -13 -23 0 -23 8 0 26 4 40 10 20 7 26 6
26 -4 0 -24 -64 -78 -120 -100 -30 -11 -54 -25 -52 -31 3 -17 73 -17 119 0 59
23 67 17 42 -30 -28 -53 -22 -49 -97 -55 -37 -3 -67 -10 -69 -17 -7 -21 48
-46 115 -52 40 -4 67 -11 70 -19 3 -9 -7 -12 -33 -10 -23 1 -40 -3 -45 -12
-14 -22 -12 -40 4 -46 24 -9 27 -34 9 -65 -22 -37 -11 -46 33 -30 27 10 38 10
50 0 27 -23 -3 -39 -74 -39 -49 0 -68 -4 -77 -17 -12 -16 -40 -9 -30 8 10 15
-28 9 -59 -9 -16 -10 -27 -22 -25 -27 2 -6 7 -9 11 -8 4 2 28 -8 54 -22 26
-14 64 -25 85 -25 21 0 49 -4 64 -10 20 -7 34 -6 56 6 17 8 33 13 36 10 11
-11 -19 -64 -58 -102 l-39 -38 -55 28 c-31 15 -62 25 -70 22 -8 -3 -17 -1 -20
4 -4 6 -19 10 -36 10 -24 0 -29 -4 -29 -26 0 -19 8 -28 35 -40 19 -7 47 -14
63 -14 16 0 49 -11 74 -24 29 -15 55 -22 71 -19 23 4 27 2 27 -17 0 -16 5 -20
18 -16 89 25 110 11 36 -24 -49 -24 -57 -24 -219 10 -51 11 -95 7 -95 -9 0 -5
17 -22 38 -38 29 -23 47 -29 85 -29 26 1 47 -1 47 -4 0 -3 27 -3 60 -2 46 3
61 0 66 -11 8 -23 -25 -69 -45 -62 -9 4 -46 9 -82 12 -75 6 -95 -6 -58 -36 13
-10 19 -23 15 -30 -4 -6 -11 -9 -15 -7 -4 3 -27 6 -52 7 -79 4 -199 70 -199
110 0 21 -28 39 -63 39 -13 0 -33 11 -45 25 -13 14 -33 25 -47 25 l-25 0 0
-114 c0 -126 -2 -123 73 -150 39 -15 54 -16 74 -7 21 10 31 8 62 -11 30 -19
50 -23 124 -23 61 0 87 -4 87 -12 0 -27 24 -62 51 -73 42 -18 25 -32 -32 -27
-28 2 -53 -1 -56 -6 -15 -24 -132 20 -156 60 -4 7 -15 13 -22 13 -8 0 -15 5
-15 10 0 6 -7 10 -15 10 -8 0 -15 4 -15 8 0 19 -145 67 -155 52 -8 -13 6 -68
20 -80 7 -6 29 -13 49 -15 38 -5 150 -57 161 -75 9 -14 8 -14 -94 30 -107 47
-141 51 -141 18 0 -13 5 -155 10 -317 9 -287 22 -408 44 -423 18 -12 29 -9 19
4 -10 13 -24 56 -29 93 -5 39 -24 638 -20 642 7 7 88 -18 140 -43 56 -27 86
-31 86 -10 0 26 -75 68 -172 96 -37 11 -47 19 -51 39 -3 15 -4 27 -3 28 6 7
96 -30 96 -39 0 -5 4 -7 10 -3 5 3 17 -2 27 -12 10 -10 46 -37 81 -60 67 -45
126 -63 144 -45 7 7 28 9 53 5 31 -4 46 -1 58 12 23 23 21 32 -10 47 -14 7
-29 20 -33 28 -4 8 -13 26 -19 40 -11 24 -16 25 -99 25 -73 0 -93 4 -124 23
-30 19 -41 21 -58 12 -17 -9 -33 -8 -76 6 l-54 17 0 103 c0 114 5 122 49 80
15 -14 40 -27 56 -29 19 -2 34 -12 42 -27 19 -38 63 -80 83 -80 10 0 21 -4 24
-9 8 -12 116 -33 151 -29 25 2 31 8 35 34 4 24 9 30 25 28 11 -1 38 -5 61 -9
43 -6 58 3 83 53 23 44 9 49 -197 66 -34 3 -82 24 -82 37 0 9 68 1 140 -17 30
-8 68 -14 85 -13 43 1 109 40 113 65 4 27 -16 35 -62 24 -20 -4 -34 -4 -31 0
8 12 -21 31 -38 24 -8 -3 -40 6 -71 20 -31 14 -67 26 -81 26 -34 0 -77 18 -70
30 4 6 15 6 31 0 14 -6 39 -10 55 -10 16 0 29 -4 29 -10 0 -5 9 -10 20 -10 11
0 20 -4 20 -10 0 -37 100 36 132 97 21 39 21 44 7 58 -13 13 -20 14 -41 4 -30
-13 -173 2 -210 23 -13 7 -25 14 -27 15 -2 1 4 9 13 18 14 14 16 14 16 1 0
-20 40 -32 50 -15 10 15 29 20 93 25 74 4 97 33 57 69 -17 15 -24 16 -46 7
-32 -15 -41 -15 -26 0 17 17 15 66 -4 76 -25 14 -7 32 32 32 32 0 35 2 32 27
-3 25 -8 28 -74 39 -104 17 -121 30 -53 39 79 10 83 12 107 54 39 69 27 86
-47 64 -24 -7 -54 -12 -65 -12 -20 1 -20 2 -1 6 37 10 102 62 118 95 19 40 13
51 -24 46 -21 -3 -26 -1 -19 6 15 15 12 82 -4 95 -9 7 -34 11 -60 8 -25 -2
-46 -2 -46 0 0 2 18 21 41 43 23 22 38 44 34 50 -4 6 1 20 10 30 32 35 13 50
-64 50 -62 0 -69 2 -74 22 -8 28 -1 38 26 38 12 0 37 13 55 28 37 31 36 52 -4
70 -13 7 -24 18 -24 26 0 7 -8 17 -17 21 -17 6 -17 7 0 19 22 17 23 56 1 56
-10 0 -14 6 -11 15 7 18 -9 29 -46 31 -61 4 -79 59 -26 83 34 15 53 53 45 87
-4 13 -2 26 4 29 16 10 12 52 -6 59 -9 3 -26 6 -38 6 -21 0 -23 4 -20 41 2 23
9 48 15 56 7 7 10 16 7 19 -3 2 -13 -7 -22 -20z m-59 -262 c-3 -3 -12 -4 -19
-1 -8 3 -5 6 6 6 11 1 17 -2 13 -5z"/>
<path d="M2089 2543 c-19 -29 -31 -37 -49 -35 -28 3 -110 -77 -110 -108 0 -12
-7 -20 -17 -20 -31 -1 -55 -27 -60 -67 l-5 -38 -51 0 c-44 0 -53 -3 -63 -23
-15 -30 -6 -63 18 -69 10 -3 18 -9 18 -14 0 -5 7 -9 16 -9 28 0 5 -17 -38 -29
-44 -11 -63 -23 -87 -54 -12 -15 -11 -20 4 -37 10 -11 24 -20 32 -20 7 0 13
-4 13 -10 0 -5 11 -10 24 -10 14 0 27 -4 31 -9 8 -13 -43 -18 -89 -8 -73 15
-82 -6 -42 -97 22 -50 28 -55 63 -61 21 -4 50 -10 66 -14 27 -6 27 -6 6 -19
-12 -8 -18 -9 -15 -4 3 5 0 9 -7 9 -6 -1 -43 2 -80 7 -74 8 -92 2 -108 -42
-11 -29 12 -62 43 -62 21 0 22 -7 3 -40 -8 -14 -14 -35 -15 -47 0 -16 -8 -25
-27 -29 -52 -13 -56 -45 -13 -99 17 -21 40 -43 53 -50 12 -6 33 -18 47 -27 14
-9 41 -19 60 -23 19 -4 40 -11 46 -16 6 -5 20 -8 30 -8 11 1 35 1 54 -1 30 -2
28 -4 -20 -11 -30 -4 -113 -10 -184 -14 -142 -7 -169 -14 -186 -45 -9 -17 -8
-27 5 -46 10 -15 22 -23 31 -20 11 4 13 -2 8 -34 l-6 -39 51 6 c36 4 55 2 67
-8 20 -16 191 -24 208 -10 11 9 56 20 111 26 l30 3 -33 -28 c-42 -35 -52 -37
-247 -51 -178 -12 -225 -26 -225 -65 0 -13 5 -24 11 -24 5 0 8 -4 4 -9 -3 -6
16 -12 42 -16 96 -12 128 -19 111 -23 -10 -2 -18 -7 -18 -12 0 -5 -25 -21 -55
-36 -30 -15 -57 -34 -59 -41 -3 -7 9 -30 27 -51 18 -22 37 -47 42 -55 13 -21
67 -29 208 -33 91 -2 123 -6 136 -18 10 -9 23 -16 29 -16 24 0 6 -25 -23 -33
-88 -22 -213 -37 -321 -37 -106 0 -123 -2 -138 -19 -16 -18 -16 -21 -1 -50 14
-28 20 -31 60 -31 25 0 45 -4 45 -8 0 -4 24 -23 54 -41 56 -33 57 -34 159 -15
24 5 27 3 27 -21 0 -25 -23 -58 -42 -61 -4 -1 -9 -3 -10 -4 -2 -2 -85 -8 -186
-15 -198 -12 -204 -15 -200 -69 3 -34 50 -65 102 -70 17 -2 38 -6 47 -10 34
-15 296 2 379 25 48 12 97 11 119 -3 19 -12 19 -12 0 -40 l-20 -28 -164 0
-164 0 -58 -32 c-48 -26 -68 -32 -115 -31 -61 1 -75 -7 -80 -47 -2 -14 -6 -29
-10 -35 -4 -6 14 -10 47 -10 29 0 51 3 48 7 -2 5 -20 8 -39 8 -33 0 -35 2 -32
27 3 25 7 28 38 26 44 -2 120 16 120 29 0 5 4 7 8 4 5 -3 21 4 38 15 26 17 48
19 196 19 l167 0 31 38 31 37 -28 23 c-35 28 -66 38 -71 23 -2 -6 -7 -9 -11
-7 -4 3 -52 -4 -107 -15 -80 -17 -123 -20 -229 -16 -180 7 -244 29 -232 79 7
25 9 26 114 29 60 2 147 4 195 4 47 0 81 3 75 7 -8 5 -7 8 3 8 24 0 60 62 61
106 0 31 2 35 9 19 6 -15 9 -16 9 -4 1 22 -10 31 -23 19 -20 -16 -142 -31
-169 -21 -13 5 -39 23 -57 40 -29 26 -39 30 -71 25 -31 -5 -39 -3 -49 16 -22
41 -10 46 137 55 76 4 155 8 176 9 20 1 37 4 37 8 0 4 6 5 14 2 21 -8 134 26
148 45 7 9 8 13 4 9 -5 -5 -15 1 -23 12 -8 11 -19 20 -24 20 -6 0 -17 7 -25
15 -12 11 -41 15 -124 15 -158 0 -198 11 -244 66 -21 25 -35 48 -31 52 3 3 34
23 68 42 95 55 86 77 -43 94 -56 8 -72 18 -64 39 7 19 71 39 112 37 15 -1 29
-2 32 -1 3 1 55 3 115 5 133 5 173 16 219 61 58 56 49 65 -39 41 -53 -14 -292
-20 -299 -7 -3 4 -28 5 -56 1 -55 -7 -55 -7 -39 21 15 29 2 59 -24 56 -23 -2
-36 28 -19 45 6 6 88 16 183 24 96 7 197 19 224 26 28 7 53 11 58 10 4 -1 7 4
7 12 0 9 -25 15 -92 20 -156 11 -187 21 -263 88 -36 32 -45 46 -43 67 2 20 10
27 33 31 25 4 31 11 36 40 3 19 11 48 18 63 14 37 16 34 -20 42 -36 8 -45 25
-29 55 10 19 18 22 54 17 22 -3 72 -9 109 -13 l69 -7 -4 29 c-3 26 -8 29 -63
40 -33 7 -61 13 -62 13 -2 1 -7 1 -11 1 -9 0 -37 70 -34 83 1 4 -2 7 -8 7 -14
0 -13 27 1 36 6 3 14 3 18 -2 3 -5 31 -9 61 -8 80 2 80 2 80 23 0 15 -12 22
-50 31 -27 6 -55 19 -62 27 -10 13 -8 19 17 39 17 14 41 27 55 30 100 23 106
34 33 66 -38 17 -44 23 -41 46 3 26 6 27 63 28 l60 1 1 36 c1 41 18 67 44 67
22 0 35 16 44 53 3 15 11 27 17 27 14 0 33 20 42 44 6 14 10 16 21 7 21 -18
45 -3 68 43 12 22 23 35 25 28 3 -7 18 -19 34 -27 17 -9 29 -24 29 -35 0 -15
9 -21 39 -26 35 -6 42 -12 61 -51 12 -25 30 -47 41 -50 23 -6 36 -50 20 -66
-6 -6 -11 -22 -11 -34 0 -21 3 -22 20 -13 11 6 20 8 20 4 0 -3 7 -1 15 6 25
21 31 2 11 -35 -10 -18 -16 -38 -12 -43 3 -5 26 -7 51 -4 52 5 59 -8 23 -46
-13 -13 -33 -33 -45 -46 -13 -13 -23 -26 -23 -30 0 -3 37 -6 81 -6 l81 0 -14
-22 c-8 -12 -33 -32 -54 -44 -21 -12 -38 -26 -37 -30 2 -5 43 -10 93 -12 49
-1 90 -5 90 -8 0 -4 -13 -23 -30 -44 -16 -21 -30 -43 -30 -49 0 -6 -3 -11 -7
-11 -5 0 -8 -13 -8 -30 0 -29 1 -30 50 -30 l49 0 -39 -41 c-55 -56 -118 -86
-222 -104 -116 -20 -128 -24 -114 -38 13 -13 9 -12 136 -38 55 -11 110 -22
123 -25 l23 -5 -24 -30 c-23 -29 -28 -31 -93 -31 -38 0 -71 1 -74 2 -38 13
-52 4 -76 -42 -14 -27 -22 -52 -20 -57 3 -4 54 -11 113 -14 124 -7 293 -39
293 -56 0 -9 -85 -61 -101 -61 -20 -1 -161 -74 -163 -85 0 -5 40 -15 89 -22
171 -23 239 -33 243 -38 7 -7 -48 -53 -84 -70 -72 -34 -126 -39 -210 -19 -43
10 -83 19 -89 19 -5 0 -15 4 -22 8 -6 4 -14 3 -17 -1 -15 -25 124 -102 189
-105 19 -1 35 -4 35 -7 0 -3 14 -6 31 -7 38 -3 118 -31 137 -48 11 -10 9 -16
-13 -33 -24 -19 -35 -20 -137 -15 l-111 6 7 -36 c6 -32 3 -38 -19 -53 -24 -16
-31 -16 -103 0 -72 16 -77 16 -89 0 -14 -20 -18 -58 -5 -50 5 3 67 -1 139 -9
72 -8 183 -19 247 -23 89 -7 120 -13 136 -27 26 -23 20 -30 -37 -45 -27 -7
-72 -24 -101 -37 -42 -20 -52 -29 -47 -43 4 -12 -2 -27 -16 -41 -18 -18 -28
-20 -71 -15 -27 4 -74 18 -104 31 -52 23 -54 23 -64 5 -18 -34 -72 -44 -134
-24 -31 10 -58 15 -62 12 -10 -11 7 -48 28 -59 21 -11 32 -14 143 -33 39 -7
65 -14 58 -17 -6 -2 34 -5 90 -6 85 -2 179 -10 292 -27 15 -2 20 -11 20 -36 0
-29 -5 -35 -40 -51 -94 -41 -131 -44 -232 -19 l-93 24 -27 -21 c-38 -28 -35
-44 12 -69 53 -27 132 -54 139 -46 3 3 6 0 6 -6 0 -10 183 -7 201 3 4 3 12 -1
18 -9 9 -11 8 -18 -4 -30 -9 -9 -21 -16 -26 -16 -6 0 -27 -11 -47 -25 -55 -38
-10 -32 50 6 50 32 60 57 33 79 -11 9 -35 11 -88 5 -98 -10 -100 -10 -193 21
-101 34 -122 47 -104 69 14 17 95 21 105 5 3 -6 22 -10 41 -10 19 0 34 -4 34
-10 0 -12 54 -13 78 -1 9 5 35 14 57 21 90 27 95 31 95 78 0 53 -14 60 -155
73 -370 36 -437 47 -467 77 -7 7 10 5 45 -5 53 -15 59 -14 94 2 21 10 41 23
45 29 5 8 17 6 40 -6 18 -9 58 -22 88 -28 74 -16 107 -3 127 50 9 22 20 37 24
34 5 -3 9 -1 9 4 0 5 21 17 48 25 81 27 122 47 122 60 0 6 -9 23 -19 36 -15
20 -28 24 -102 27 -81 4 -131 9 -194 19 -32 5 -178 18 -207 19 -10 0 -18 6
-18 14 0 8 7 11 18 8 9 -2 45 -8 80 -11 100 -11 130 8 122 79 -1 10 3 16 8 12
5 -3 53 -6 106 -7 88 -2 99 0 121 21 51 48 24 69 -142 110 -144 36 -188 55
-105 45 54 -6 177 3 168 13 -3 3 11 13 32 24 20 10 51 30 67 43 25 20 28 28
19 42 -7 11 -26 19 -50 21 -21 2 -43 8 -48 13 -6 5 -43 9 -82 9 -41 0 -76 5
-79 11 -4 6 -14 8 -22 5 -9 -4 -13 -1 -11 6 3 7 48 31 102 54 54 24 106 50
117 60 52 47 -59 83 -306 99 -33 2 -66 4 -72 4 -9 1 -9 10 3 34 l16 34 93 0
c69 1 100 5 117 17 12 9 19 16 15 16 -5 0 -1 7 7 16 22 22 20 43 -6 53 -13 5
-69 17 -126 27 -57 10 -105 21 -107 24 -3 4 28 10 68 13 39 4 73 11 75 17 2 5
12 10 22 10 34 0 92 34 137 79 53 53 53 74 -2 81 -36 4 -40 8 -36 30 1 14 6
27 10 30 15 11 51 69 51 83 0 21 -22 27 -93 27 -52 1 -59 3 -42 12 31 18 55
51 52 73 -2 17 -11 20 -65 23 l-63 3 31 39 c42 53 37 74 -17 78 -41 3 -42 3
-31 33 15 44 4 63 -32 55 -28 -5 -30 -4 -20 14 15 27 2 68 -26 83 -13 7 -34
32 -47 57 -17 32 -30 45 -47 46 -12 1 -33 15 -47 33 -13 17 -30 31 -38 31 -7
0 -15 7 -19 15 -9 25 -31 17 -57 -22z m331 -1553 c0 -5 -2 -10 -4 -10 -3 0 -8
5 -11 10 -3 6 -1 10 4 10 6 0 11 -4 11 -10z"/>
<path d="M2187 2459 c7 -7 15 -10 18 -7 3 3 -2 9 -12 12 -14 6 -15 5 -6 -5z"/>
<path d="M547 808 c-43 -22 -76 -43 -73 -46 3 -3 16 -1 29 5 65 32 114 53 122
53 4 0 5 -96 0 -212 -20 -560 -21 -608 -7 -603 8 3 14 5 15 5 1 0 2 118 2 263
0 144 4 268 9 274 4 7 6 53 5 103 -2 49 -2 90 1 90 3 0 3 25 2 55 -3 33 -8 55
-15 54 -7 0 -47 -18 -90 -41z"/>
<path d="M1488 503 c7 -3 16 -2 19 1 4 3 -2 6 -13 5 -11 0 -14 -3 -6 -6z"/>
</g>
</svg>
